<?xml version="1.0" encoding="UTF-8"?>
<!DOCTYPE svg PUBLIC "-//W3C//DTD SVG 1.1//EN" "http://www.w3.org/Graphics/SVG/1.1/DTD/svg11.dtd">
<svg version="1.2" width="99.48mm" height="28.92mm" viewBox="0 0 9948 2892" preserveAspectRatio="xMidYMid" fill-rule="evenodd" stroke-width="28.222" stroke-linejoin="round" xmlns="http://www.w3.org/2000/svg" xmlns:ooo="http://xml.openoffice.org/svg/export" xmlns:xlink="http://www.w3.org/1999/xlink" xmlns:presentation="http://sun.com/xmlns/staroffice/presentation" xmlns:smil="http://www.w3.org/2001/SMIL20/" xmlns:anim="urn:oasis:names:tc:opendocument:xmlns:animation:1.0" xml:space="preserve">
 <defs class="ClipPathGroup">
  <clipPath id="presentation_clip_path" clipPathUnits="userSpaceOnUse">
   <rect x="0" y="0" width="9948" height="2892"/>
  </clipPath>
  <clipPath id="presentation_clip_path_shrink" clipPathUnits="userSpaceOnUse">
   <rect x="9" y="2" width="9929" height="2887"/>
  </clipPath>
 </defs>
 <defs class="TextShapeIndex">
  <g ooo:slide="id1" ooo:id-list="id3"/>
 </defs>
 <defs class="EmbeddedBulletChars">
  <g id="bullet-char-template-57356" transform="scale(0.00048828125,-0.00048828125)">
   <path d="M 580,1141 L 1163,571 580,0 -4,571 580,1141 Z"/>
  </g>
  <g id="bullet-char-template-57354" transform="scale(0.00048828125,-0.00048828125)">
   <path d="M 8,1128 L 1137,1128 1137,0 8,0 8,1128 Z"/>
  </g>
  <g id="bullet-char-template-10146" transform="scale(0.00048828125,-0.00048828125)">
   <path d="M 174,0 L 602,739 174,1481 1456,739 174,0 Z M 1358,739 L 309,1346 659,739 1358,739 Z"/>
  </g>
  <g id="bullet-char-template-10132" transform="scale(0.00048828125,-0.00048828125)">
   <path d="M 2015,739 L 1276,0 717,0 1260,543 174,543 174,936 1260,936 717,1481 1274,1481 2015,739 Z"/>
  </g>
  <g id="bullet-char-template-10007" transform="scale(0.00048828125,-0.00048828125)">
   <path d="M 0,-2 C -7,14 -16,27 -25,37 L 356,567 C 262,823 215,952 215,954 215,979 228,992 255,992 264,992 276,990 289,987 310,991 331,999 354,1012 L 381,999 492,748 772,1049 836,1024 860,1049 C 881,1039 901,1025 922,1006 886,937 835,863 770,784 769,783 710,716 594,584 L 774,223 C 774,196 753,168 711,139 L 727,119 C 717,90 699,76 672,76 641,76 570,178 457,381 L 164,-76 C 142,-110 111,-127 72,-127 30,-127 9,-110 8,-76 1,-67 -2,-52 -2,-32 -2,-23 -1,-13 0,-2 Z"/>
  </g>
  <g id="bullet-char-template-10004" transform="scale(0.00048828125,-0.00048828125)">
   <path d="M 285,-33 C 182,-33 111,30 74,156 52,228 41,333 41,471 41,549 55,616 82,672 116,743 169,778 240,778 293,778 328,747 346,684 L 369,508 C 377,444 397,411 428,410 L 1163,1116 C 1174,1127 1196,1133 1229,1133 1271,1133 1292,1118 1292,1087 L 1292,965 C 1292,929 1282,901 1262,881 L 442,47 C 390,-6 338,-33 285,-33 Z"/>
  </g>
  <g id="bullet-char-template-9679" transform="scale(0.00048828125,-0.00048828125)">
   <path d="M 813,0 C 632,0 489,54 383,161 276,268 223,411 223,592 223,773 276,916 383,1023 489,1130 632,1184 813,1184 992,1184 1136,1130 1245,1023 1353,916 1407,772 1407,592 1407,412 1353,268 1245,161 1136,54 992,0 813,0 Z"/>
  </g>
  <g id="bullet-char-template-8226" transform="scale(0.00048828125,-0.00048828125)">
   <path d="M 346,457 C 273,457 209,483 155,535 101,586 74,649 74,723 74,796 101,859 155,911 209,963 273,989 346,989 419,989 480,963 531,910 582,859 608,796 608,723 608,648 583,586 532,535 482,483 420,457 346,457 Z"/>
  </g>
  <g id="bullet-char-template-8211" transform="scale(0.00048828125,-0.00048828125)">
   <path d="M -4,459 L 1135,459 1135,606 -4,606 -4,459 Z"/>
  </g>
  <g id="bullet-char-template-61548" transform="scale(0.00048828125,-0.00048828125)">
   <path d="M 173,740 C 173,903 231,1043 346,1159 462,1274 601,1332 765,1332 928,1332 1067,1274 1183,1159 1299,1043 1357,903 1357,740 1357,577 1299,437 1183,322 1067,206 928,148 765,148 601,148 462,206 346,322 231,437 173,577 173,740 Z"/>
  </g>
 </defs>
 <defs class="TextEmbeddedBitmaps"/>
 <g>
  <g id="id2" class="Master_Slide">
   <g id="bg-id2" class="Background"/>
   <g id="bo-id2" class="BackgroundObjects"/>
  </g>
 </g>
 <g class="SlideGroup">
  <g>
   <g id="container-id1">
    <g id="id1" class="Slide" clip-path="url(#presentation_clip_path)">
     <g class="Page">
      <g class="Graphic">
       <g id="id3">
        <rect class="BoundingBox" stroke="none" fill="none" x="0" y="0" width="9948" height="2892"/>
        <path fill="rgb(0,0,0)" stroke="none" d="M 2591,1284 C 2554,1284 2523,1253 2523,1216 2523,1178 2554,1148 2591,1148 2628,1148 2659,1178 2659,1216 2659,1253 2628,1284 2591,1284 L 2591,1284 Z M 2252,2572 C 2177,2572 2116,2511 2116,2437 2116,2362 2177,2301 2252,2301 2326,2301 2387,2362 2387,2437 2387,2511 2326,2572 2252,2572 L 2252,2572 Z M 2252,1962 C 2177,1962 2116,1901 2116,1826 2116,1752 2177,1691 2252,1691 2326,1691 2387,1752 2387,1826 2387,1901 2326,1962 2252,1962 L 2252,1962 Z M 2252,1351 C 2177,1351 2116,1290 2116,1216 2116,1141 2177,1080 2252,1080 2326,1080 2387,1141 2387,1216 2387,1290 2326,1351 2252,1351 L 2252,1351 Z M 2252,741 C 2177,741 2116,680 2116,605 2116,531 2177,470 2252,470 2326,470 2387,531 2387,605 2387,680 2326,741 2252,741 L 2252,741 Z M 1675,2098 C 1543,2098 1438,1992 1438,1860 1438,1728 1543,1623 1675,1623 1807,1623 1913,1728 1913,1860 1913,1992 1807,2098 1675,2098 L 1675,2098 Z M 1675,1419 C 1543,1419 1438,1314 1438,1182 1438,1050 1543,944 1675,944 1807,944 1913,1050 1913,1182 1913,1314 1807,1419 1675,1419 L 1675,1419 Z M 1641,741 C 1567,741 1506,680 1506,605 1506,531 1567,470 1641,470 1716,470 1777,531 1777,605 1777,680 1716,741 1641,741 L 1641,741 Z M 1641,334 C 1604,334 1573,304 1573,266 1573,229 1604,198 1641,198 1679,198 1709,229 1709,266 1709,304 1679,334 1641,334 L 1641,334 Z M 997,2098 C 865,2098 759,1992 759,1860 759,1728 865,1623 997,1623 1129,1623 1234,1728 1234,1860 1234,1992 1129,2098 997,2098 L 997,2098 Z M 997,1419 C 865,1419 759,1314 759,1182 759,1050 865,944 997,944 1129,944 1234,1050 1234,1182 1234,1314 1129,1419 997,1419 L 997,1419 Z M 1031,741 C 956,741 895,680 895,605 895,531 956,470 1031,470 1105,470 1166,531 1166,605 1166,680 1105,741 1031,741 L 1031,741 Z M 1031,334 C 993,334 963,304 963,266 963,229 993,198 1031,198 1068,198 1099,229 1099,266 1099,304 1068,334 1031,334 L 1031,334 Z M 420,741 C 346,741 285,680 285,605 285,531 346,470 420,470 495,470 556,531 556,605 556,680 495,741 420,741 L 420,741 Z M 420,1080 C 495,1080 556,1141 556,1216 556,1290 495,1351 420,1351 346,1351 285,1290 285,1216 285,1141 346,1080 420,1080 L 420,1080 Z M 81,1894 C 44,1894 13,1864 13,1826 13,1789 44,1758 81,1758 118,1758 149,1789 149,1826 149,1864 118,1894 81,1894 L 81,1894 Z M 81,1284 C 44,1284 13,1253 13,1216 13,1178 44,1148 81,1148 118,1148 149,1178 149,1216 149,1253 118,1284 81,1284 L 81,1284 Z M 420,1691 C 495,1691 556,1752 556,1826 556,1901 495,1962 420,1962 346,1962 285,1901 285,1826 285,1752 346,1691 420,1691 L 420,1691 Z M 420,2301 C 495,2301 556,2362 556,2437 556,2511 495,2572 420,2572 346,2572 285,2511 285,2437 285,2362 346,2301 420,2301 L 420,2301 Z M 1031,2301 C 1105,2301 1166,2362 1166,2437 1166,2511 1105,2572 1031,2572 956,2572 895,2511 895,2437 895,2362 956,2301 1031,2301 L 1031,2301 Z M 1031,2708 C 1068,2708 1099,2738 1099,2776 1099,2813 1068,2844 1031,2844 993,2844 963,2813 963,2776 963,2738 993,2708 1031,2708 L 1031,2708 Z M 1641,2301 C 1716,2301 1777,2362 1777,2437 1777,2511 1716,2572 1641,2572 1567,2572 1506,2511 1506,2437 1506,2362 1567,2301 1641,2301 L 1641,2301 Z M 1641,2708 C 1679,2708 1709,2738 1709,2776 1709,2813 1679,2844 1641,2844 1604,2844 1573,2813 1573,2776 1573,2738 1604,2708 1641,2708 L 1641,2708 Z M 2591,1758 C 2628,1758 2659,1789 2659,1826 2659,1864 2628,1894 2591,1894 2554,1894 2523,1864 2523,1826 2523,1789 2554,1758 2591,1758 L 2591,1758 Z"/>
       </g>
      </g>
     </g>
    </g>
   </g>
  </g>
 </g>
</svg>